# xmcd CD database file
#
# Track frame offsets:
#	150
#	21540
#	44426
#	86275
#	108175
#	146140
#	179966
#	203026
#	217955
#	239643
#	259046
#
# Disc length: 4258 seconds
#
# Revision: 0
# Processed by: cddbd v1.5.1PL2 Copyright (c) Steve Scherf et al.
# Submitted via: CDex 1.51
#
DISCID=a410a00b
DTITLE=Lani Misalucha - Love Consert
DYEAR=1900
DGENRE=Pop
TTITLE0=My Love
TTITLE1=Best of My Love
TTITLE2=Gotta Be Real
TTITLE3=When I Met You
TTITLE4=Bakit Ba Ganyan
TTITLE5=I Think I'm in Love
TTITLE6=Bakita Ngayon Ka Lan
TTITLE7=All at Once
TTITLE8=Didn't We Almost Have it All
TTITLE9=Saving All My Love For You
TTITLE10=One Moment in Time
EXTD=
EXTT0=
EXTT1=
EXTT2=
EXTT3=
EXTT4=
EXTT5=
EXTT6=
EXTT7=
EXTT8=
EXTT9=
EXTT10=
PLAYORDER=
